{
.appVersion = "939";
DisplayStrings = (
o,
KOQLIA
);
date = "2016-12-30 15:48:19 +0000";
familyName = "new Font";
fontMaster = (
{
ascender = 800;
capHeight = 750;
descender = -215;
id = "4FDEB90F-2C0C-4ACB-ACF7-DAF8C24482EF";
visible = 1;
xHeight = 580;
}
);
glyphs = (
{
glyphname = A;
lastChange = "2017-01-15 16:24:48 +0000";
layers = (
{
guideLines = (
{
angle = 90;
position = "{320, 476}";
}
);
layerId = "4FDEB90F-2C0C-4ACB-ACF7-DAF8C24482EF";
paths = (
{
closed = 1;
nodes = (
"36 0 LINE",
"108 0 LINE",
"353 750 LINE",
"286 750 LINE"
);
},
{
closed = 1;
nodes = (
"532 0 LINE",
"604 0 LINE",
"354 750 LINE",
"287 750 LINE"
);
},
{
closed = 1;
nodes = (
"160 184 LINE",
"480 184 LINE",
"480 252 LINE",
"160 251 LINE"
);
}
);
width = 643;
}
);
unicode = 0041;
},
{
glyphname = B;
lastChange = "2017-01-27 18:51:11 +0000";
layers = (
{
layerId = "4FDEB90F-2C0C-4ACB-ACF7-DAF8C24482EF";
paths = (
{
closed = 1;
nodes = (
"363 362 LINE SMOOTH",
"420 362 OFFCURVE",
"533 386 OFFCURVE",
"533 558 CURVE SMOOTH",
"533 730 OFFCURVE",
"412 750 OFFCURVE",
"331 750 CURVE",
"154 750 LINE",
"154 362 LINE"
);
},
{
closed = 1;
nodes = (
"177 0 LINE",
"177 750 LINE",
"105 750 LINE",
"105 0 LINE"
);
},
{
closed = 1;
nodes = (
"164 679 LINE",
"330 679 LINE",
"388 679 OFFCURVE",
"466 666 OFFCURVE",
"466 559 CURVE SMOOTH",
"466 451 OFFCURVE",
"405 404 OFFCURVE",
"298 403 CURVE SMOOTH",
"164 402 LINE"
);
},
{
closed = 1;
nodes = (
"383 0 LINE SMOOTH",
"460 0 OFFCURVE",
"573 46 OFFCURVE",
"573 218 CURVE SMOOTH",
"573 390 OFFCURVE",
"452 430 OFFCURVE",
"401 430 CURVE",
"154 430 LINE",
"154 0 LINE"
);
},
{
closed = 1;
nodes = (
"164 362 LINE",
"370 362 LINE",
"428 362 OFFCURVE",
"506 328 OFFCURVE",
"506 219 CURVE SMOOTH",
"506 112 OFFCURVE",
"433 72 OFFCURVE",
"378 72 CURVE SMOOTH",
"164 72 LINE"
);
}
);
width = 638;
}
);
unicode = 0042;
},
{
glyphname = C;
lastChange = "2017-01-28 17:26:01 +0000";
layers = (
{
layerId = "4FDEB90F-2C0C-4ACB-ACF7-DAF8C24482EF";
paths = (
{
closed = 1;
nodes = (
"517 738 OFFCURVE",
"461 764 OFFCURVE",
"346 764 CURVE SMOOTH",
"154 764 OFFCURVE",
"70 646 OFFCURVE",
"70 373 CURVE",
"70 92 OFFCURVE",
"165 -11 OFFCURVE",
"361 -11 CURVE",
"495 -11 OFFCURVE",
"556 29 OFFCURVE",
"580 45 CURVE",
"560 109 LINE",
"526 89 OFFCURVE",
"459 58 OFFCURVE",
"372 58 CURVE SMOOTH",
"201 58 OFFCURVE",
"144 143 OFFCURVE",
"144 373 CURVE SMOOTH",
"144 606 OFFCURVE",
"190 685 OFFCURVE",
"350 693 CURVE SMOOTH",
"424 697 OFFCURVE",
"495 677 OFFCURVE",
"541 654 CURVE",
"558 717 LINE"
);
}
);
width = 636;
},
{
associatedMasterId = "4FDEB90F-2C0C-4ACB-ACF7-DAF8C24482EF";
layerId = "17F40594-FFBD-485E-9AD4-C3177C097BED";
name = clan;
paths = (
{
closed = 1;
nodes = (
"507 726 LINE",
"468 745 OFFCURVE",
"395 762 OFFCURVE",
"332 762 CURVE SMOOTH",
"114 762 OFFCURVE",
"16 646 OFFCURVE",
"16 383 CURVE SMOOTH",
"16 107 OFFCURVE",
"112 -14 OFFCURVE",
"330 -14 CURVE SMOOTH",
"397 -14 OFFCURVE",
"466 7 OFFCURVE",
"511 31 CURVE",
"500 88 LINE",
"455 64 OFFCURVE",
"401 49 OFFCURVE",
"338 49 CURVE SMOOTH",
"165 49 OFFCURVE",
"84 129 OFFCURVE",
"84 383 CURVE SMOOTH",
"84 621 OFFCURVE",
"164 699 OFFCURVE",
"335 699 CURVE SMOOTH",
"397 699 OFFCURVE",
"457 684 OFFCURVE",
"498 665 CURVE"
);
}
);
width = 600;
},
{
associatedMasterId = "4FDEB90F-2C0C-4ACB-ACF7-DAF8C24482EF";
layerId = "A7A223C7-8326-4934-B146-84330ED52301";
name = whitney;
paths = (
{
closed = 1;
nodes = (
"576 130 LINE",
"515 86 OFFCURVE",
"442 56 OFFCURVE",
"360 56 CURVE SMOOTH",
"197 56 OFFCURVE",
"93 179 OFFCURVE",
"93 363 CURVE SMOOTH",
"93 546 OFFCURVE",
"196 670 OFFCURVE",
"362 670 CURVE SMOOTH",
"439 670 OFFCURVE",
"504 641 OFFCURVE",
"562 600 CURVE",
"575 677 LINE",
"518 715 OFFCURVE",
"448 738 OFFCURVE",
"363 738 CURVE SMOOTH",
"155 738 OFFCURVE",
"15 584 OFFCURVE",
"15 361 CURVE SMOOTH",
"15 138 OFFCURVE",
"153 -14 OFFCURVE",
"357 -14 CURVE SMOOTH",
"447 -14 OFFCURVE",
"530 17 OFFCURVE",
"587 59 CURVE"
);
}
);
width = 600;
}
);
unicode = 0043;
},
{
glyphname = D;
lastChange = "2017-01-20 11:22:39 +0000";
layers = (
{
layerId = "4FDEB90F-2C0C-4ACB-ACF7-DAF8C24482EF";
paths = (
{
closed = 1;
nodes = (
"298 0 LINE SMOOTH",
"464 0 OFFCURVE",
"601 101 OFFCURVE",
"601 379 CURVE SMOOTH",
"601 657 OFFCURVE",
"482 750 OFFCURVE",
"324 750 CURVE",
"118 750 LINE",
"121 0 LINE"
);
},
{
closed = 1;
nodes = (
"172 0 LINE",
"172 750 LINE",
"100 750 LINE",
"100 0 LINE"
);
},
{
closed = 1;
nodes = (
"155 680 LINE",
"320 680 LINE",
"430 680 OFFCURVE",
"532 612 OFFCURVE",
"532 378 CURVE SMOOTH",
"532 145 OFFCURVE",
"425 70 OFFCURVE",
"294 70 CURVE SMOOTH",
"157 70 LINE"
);
}
);
width = 666;
}
);
unicode = 0044;
},
{
glyphname = E;
lastChange = "2017-01-29 15:09:33 +0000";
layers = (
{
layerId = "4FDEB90F-2C0C-4ACB-ACF7-DAF8C24482EF";
paths = (
{
closed = 1;
nodes = (
"98 0 LINE",
"170 0 LINE",
"170 750 LINE",
"98 750 LINE"
);
},
{
closed = 1;
nodes = (
"98 344 LINE",
"448 344 LINE",
"448 412 LINE",
"98 411 LINE"
);
},
{
closed = 1;
nodes = (
"98 682 LINE",
"488 682 LINE",
"488 750 LINE",
"98 750 LINE"
);
},
{
closed = 1;
nodes = (
"98 0 LINE",
"498 0 LINE",
"498 68 LINE",
"98 67 LINE"
);
}
);
width = 554;
}
);
unicode = 0045;
},
{
glyphname = F;
lastChange = "2017-01-15 16:02:18 +0000";
layers = (
{
layerId = "4FDEB90F-2C0C-4ACB-ACF7-DAF8C24482EF";
paths = (
{
closed = 1;
nodes = (
"98 752 LINE",
"98 0 LINE",
"170 0 LINE",
"170 750 LINE",
"98 750 LINE"
);
},
{
closed = 1;
nodes = (
"98 404 LINE",
"98 333 LINE",
"438 333 LINE",
"438 401 LINE",
"98 400 LINE"
);
},
{
closed = 1;
nodes = (
"98 753 LINE",
"98 682 LINE",
"488 682 LINE",
"488 750 LINE",
"98 749 LINE"
);
}
);
width = 522;
}
);
unicode = 0046;
},
{
glyphname = G;
lastChange = "2017-01-28 17:24:53 +0000";
layers = (
{
layerId = "4FDEB90F-2C0C-4ACB-ACF7-DAF8C24482EF";
paths = (
{
closed = 1;
nodes = (
"542 750 OFFCURVE",
"476 764 OFFCURVE",
"361 764 CURVE SMOOTH",
"159 764 OFFCURVE",
"70 646 OFFCURVE",
"70 373 CURVE",
"70 82 OFFCURVE",
"183 -11 OFFCURVE",
"369 -11 CURVE",
"505 -16 OFFCURVE",
"571 25 OFFCURVE",
"610 45 CURVE",
"537 90 LINE",
"518 79 OFFCURVE",
"453 60 OFFCURVE",
"370 60 CURVE SMOOTH",
"214 60 OFFCURVE",
"144 133 OFFCURVE",
"144 373 CURVE SMOOTH",
"144 606 OFFCURVE",
"196 690 OFFCURVE",
"360 698 CURVE SMOOTH",
"434 702 OFFCURVE",
"525 687 OFFCURVE",
"571 664 CURVE",
"588 727 LINE"
);
},
{
closed = 1;
nodes = (
"537 89 LINE",
"610 45 LINE",
"610 338 LINE",
"537 338 LINE"
);
},
{
closed = 1;
nodes = (
"383 316 LINE",
"610 306 LINE",
"610 377 LINE",
"383 377 LINE"
);
}
);
width = 666;
},
{
associatedMasterId = "4FDEB90F-2C0C-4ACB-ACF7-DAF8C24482EF";
layerId = "2592F7F0-26A5-45F7-B448-436BE431A7F2";
name = clan;
paths = (
{
closed = 1;
nodes = (
"571 394 LINE",
"512 394 LINE",
"512 78 LINE",
"469 60 OFFCURVE",
"417 50 OFFCURVE",
"356 50 CURVE SMOOTH",
"173 50 OFFCURVE",
"98 134 OFFCURVE",
"98 373 CURVE SMOOTH",
"98 625 OFFCURVE",
"183 701 OFFCURVE",
"362 701 CURVE SMOOTH",
"432 701 OFFCURVE",
"493 686 OFFCURVE",
"544 664 CURVE",
"553 725 LINE",
"503 747 OFFCURVE",
"429 762 OFFCURVE",
"359 762 CURVE SMOOTH",
"133 762 OFFCURVE",
"30 651 OFFCURVE",
"30 372 CURVE SMOOTH",
"30 98 OFFCURVE",
"131 -14 OFFCURVE",
"357 -14 CURVE SMOOTH",
"439 -14 OFFCURVE",
"518 4 OFFCURVE",
"571 30 CURVE"
);
}
);
width = 600;
},
{
associatedMasterId = "4FDEB90F-2C0C-4ACB-ACF7-DAF8C24482EF";
layerId = "B2FD554E-CA61-403C-B8E9-BDD3F611A6F7";
name = whitney;
paths = (
{
closed = 1;
nodes = (
"602 382 LINE",
"335 382 LINE",
"346 313 LINE",
"527 313 LINE",
"527 100 LINE",
"478 71 OFFCURVE",
"426 55 OFFCURVE",
"356 55 CURVE SMOOTH",
"179 55 OFFCURVE",
"78 177 OFFCURVE",
"78 362 CURVE SMOOTH",
"78 548 OFFCURVE",
"179 670 OFFCURVE",
"346 670 CURVE SMOOTH",
"433 670 OFFCURVE",
"502 641 OFFCURVE",
"558 598 CURVE",
"571 675 LINE",
"513 714 OFFCURVE",
"441 738 OFFCURVE",
"348 738 CURVE SMOOTH",
"137 738 OFFCURVE",
"0 584 OFFCURVE",
"0 361 CURVE SMOOTH",
"0 139 OFFCURVE",
"132 -14 OFFCURVE",
"354 -14 CURVE SMOOTH",
"452 -14 OFFCURVE",
"533 16 OFFCURVE",
"602 59 CURVE"
);
}
);
width = 600;
}
);
unicode = 0047;
},
{
glyphname = H;
lastChange = "2017-01-15 15:57:55 +0000";
layers = (
{
layerId = "4FDEB90F-2C0C-4ACB-ACF7-DAF8C24482EF";
paths = (
{
closed = 1;
nodes = (
"56 0 LINE",
"128 0 LINE",
"128 750 LINE",
"56 750 LINE"
);
},
{
closed = 1;
nodes = (
"472 0 LINE",
"544 0 LINE",
"544 750 LINE",
"472 750 LINE"
);
},
{
closed = 1;
nodes = (
"60 344 LINE",
"540 344 LINE",
"540 412 LINE",
"60 411 LINE"
);
}
);
width = 600;
},
{
associatedMasterId = "4FDEB90F-2C0C-4ACB-ACF7-DAF8C24482EF";
layerId = "A0B80D18-E9B8-42B5-987C-A45F49249C9B";
name = "Jan 14 17, 14:40";
paths = (
{
closed = 1;
nodes = (
"53 752 LINE",
"53 0 LINE",
"125 0 LINE",
"125 750 LINE",
"53 750 LINE"
);
},
{
closed = 1;
nodes = (
"475 752 LINE",
"475 0 LINE",
"547 0 LINE",
"547 750 LINE",
"475 750 LINE"
);
},
{
closed = 1;
nodes = (
"263 752 LINE",
"263 0 LINE",
"335 0 LINE",
"335 750 LINE",
"263 750 LINE"
);
},
{
closed = 1;
nodes = (
"62 753 LINE",
"62 683 LINE",
"542 683 LINE",
"542 750 LINE",
"62 750 LINE"
);
}
);
width = 600;
}
);
unicode = 0048;
},
{
glyphname = I;
lastChange = "2017-01-14 13:39:24 +0000";
layers = (
{
layerId = "4FDEB90F-2C0C-4ACB-ACF7-DAF8C24482EF";
paths = (
{
closed = 1;
nodes = (
"108 752 LINE",
"108 0 LINE",
"180 0 LINE",
"180 750 LINE",
"108 750 LINE"
);
}
);
width = 288;
}
);
unicode = 0049;
},
{
glyphname = J;
lastChange = "2017-02-02 21:01:04 +0000";
layers = (
{
layerId = "4FDEB90F-2C0C-4ACB-ACF7-DAF8C24482EF";
paths = (
{
closed = 1;
nodes = (
"344 211 LINE",
"344 141 OFFCURVE",
"341 -8 OFFCURVE",
"159 -8 CURVE",
"128 -8 OFFCURVE",
"52 2 OFFCURVE",
"30 12 CURVE",
"41 82 LINE",
"63 72 OFFCURVE",
"121 63 OFFCURVE",
"157 63 CURVE SMOOTH",
"268 63 OFFCURVE",
"270 151 OFFCURVE",
"270 212 CURVE SMOOTH",
"270 750 LINE",
"344 750 LINE"
);
},
{
closed = 0;
nodes = (
"344 750 LINE"
);
}
);
width = 412;
},
{
associatedMasterId = "4FDEB90F-2C0C-4ACB-ACF7-DAF8C24482EF";
layerId = "22872341-BCC3-41C1-A138-42BD96BBC643";
name = " ";
paths = (
{
closed = 1;
nodes = (
"438 750 LINE",
"371 750 LINE",
"371 240 LINE SMOOTH",
"371 111 OFFCURVE",
"302 48 OFFCURVE",
"186 48 CURVE SMOOTH",
"128 48 OFFCURVE",
"82 65 OFFCURVE",
"47 93 CURVE",
"40 32 LINE",
"76 4 OFFCURVE",
"127 -14 OFFCURVE",
"193 -14 CURVE SMOOTH",
"349 -14 OFFCURVE",
"438 74 OFFCURVE",
"438 239 CURVE SMOOTH"
);
}
);
width = 600;
},
{
associatedMasterId = "4FDEB90F-2C0C-4ACB-ACF7-DAF8C24482EF";
layerId = "39F280C0-2B08-44BE-8EA9-E0C91FA36444";
name = "Feb 2 17, 21:42";
paths = (
{
closed = 1;
nodes = (
"436 725 LINE",
"360 725 LINE",
"360 178 LINE SMOOTH",
"360 97 OFFCURVE",
"317 60 OFFCURVE",
"242 60 CURVE SMOOTH",
"212 60 OFFCURVE",
"187 63 OFFCURVE",
"163 70 CURVE",
"174 0 LINE",
"192 -4 OFFCURVE",
"217 -7 OFFCURVE",
"241 -7 CURVE SMOOTH",
"356 -7 OFFCURVE",
"436 51 OFFCURVE",
"436 176 CURVE SMOOTH"
);
}
);
width = 600;
visible = 1;
}
);
unicode = 004A;
},
{
glyphname = K;
lastChange = "2017-01-20 10:40:59 +0000";
layers = (
{
layerId = "4FDEB90F-2C0C-4ACB-ACF7-DAF8C24482EF";
paths = (
{
closed = 1;
nodes = (
"122 279 LINE",
"543 750 LINE",
"454 750 LINE",
"119 372 LINE"
);
},
{
closed = 1;
nodes = (
"152 0 LINE",
"152 750 LINE",
"80 750 LINE",
"80 0 LINE"
);
},
{
closed = 1;
nodes = (
"472 0 LINE",
"564 0 LINE",
"231 408 LINE",
"185 357 LINE"
);
}
);
width = 582;
}
);
unicode = 004B;
},
{
glyphname = L;
lastChange = "2017-01-15 16:03:19 +0000";
layers = (
{
layerId = "4FDEB90F-2C0C-4ACB-ACF7-DAF8C24482EF";
paths = (
{
closed = 1;
nodes = (
"98 0 LINE",
"170 0 LINE",
"170 750 LINE",
"98 750 LINE"
);
},
{
closed = 1;
nodes = (
"98 0 LINE",
"498 0 LINE",
"498 68 LINE",
"98 67 LINE"
);
}
);
width = 528;
}
);
unicode = 004C;
},
{
glyphname = M;
lastChange = "2017-01-29 12:16:02 +0000";
layers = (
{
layerId = "4FDEB90F-2C0C-4ACB-ACF7-DAF8C24482EF";
paths = (
{
closed = 1;
nodes = (
"96 -2 LINE",
"96 749 LINE",
"209 750 LINE",
"429 108 LINE",
"649 750 LINE",
"760 751 LINE",
"760 0 LINE",
"691 0 LINE",
"694 661 LINE",
"462 0 LINE",
"398 0 LINE",
"163 661 LINE",
"165 0 LINE",
"96 0 LINE"
);
}
);
width = 856;
},
{
associatedMasterId = "4FDEB90F-2C0C-4ACB-ACF7-DAF8C24482EF";
layerId = "53AAF88A-5163-4F68-9E36-B59128B65A0E";
name = clan;
paths = (
{
closed = 1;
nodes = (
"-45 750 LINE",
"-45 0 LINE",
"14 0 LINE",
"14 558 LINE",
"13 639 LINE",
"15 640 LINE",
"44 564 LINE",
"275 0 LINE",
"325 0 LINE",
"556 567 LINE",
"585 643 LINE",
"588 642 LINE",
"586 561 LINE",
"586 0 LINE",
"645 0 LINE",
"645 750 LINE",
"568 750 LINE",
"331 167 LINE",
"303 92 LINE",
"300 92 LINE",
"271 167 LINE",
"34 750 LINE"
);
}
);
width = 600;
},
{
associatedMasterId = "4FDEB90F-2C0C-4ACB-ACF7-DAF8C24482EF";
layerId = "9F700724-6C2A-4589-9416-C4D8D6BAB928";
name = whitney;
paths = (
{
closed = 1;
nodes = (
"713 0 LINE",
"653 725 LINE",
"561 725 LINE",
"301 97 LINE",
"42 725 LINE",
"-52 725 LINE",
"-113 0 LINE",
"-41 0 LINE",
"9 617 LINE",
"269 -4 LINE",
"330 -4 LINE",
"590 617 LINE",
"639 0 LINE"
);
}
);
width = 600;
}
);
unicode = 004D;
},
{
glyphname = N;
lastChange = "2017-01-29 14:37:30 +0000";
layers = (
{
layerId = "4FDEB90F-2C0C-4ACB-ACF7-DAF8C24482EF";
paths = (
{
closed = 1;
nodes = (
"98 750 LINE",
"165 750 LINE",
"167 0 LINE",
"98 0 LINE"
);
},
{
closed = 1;
nodes = (
"538 749 LINE",
"605 750 LINE",
"607 0 LINE",
"538 0 LINE"
);
},
{
closed = 1;
nodes = (
"165 750 LINE",
"578 53 LINE",
"538 0 LINE",
"121 694 LINE"
);
}
);
width = 705;
}
);
unicode = 004E;
},
{
glyphname = O;
lastChange = "2017-02-02 21:12:58 +0000";
layers = (
{
layerId = "4FDEB90F-2C0C-4ACB-ACF7-DAF8C24482EF";
paths = (
{
closed = 1;
nodes = (
"199 686 OFFCURVE",
"132 536 OFFCURVE",
"132 382 CURVE SMOOTH",
"132 235 OFFCURVE",
"200 64 OFFCURVE",
"364 64 CURVE SMOOTH",
"527 64 OFFCURVE",
"590 235 OFFCURVE",
"590 382 CURVE SMOOTH",
"590 536 OFFCURVE",
"526 686 OFFCURVE",
"362 686 CURVE"
);
},
{
closed = 1;
nodes = (
"577 758 OFFCURVE",
"662 600 OFFCURVE",
"662 382 CURVE SMOOTH",
"662 171 OFFCURVE",
"591 -8 OFFCURVE",
"364 -8 CURVE SMOOTH",
"162 -8 OFFCURVE",
"60 171 OFFCURVE",
"60 382 CURVE SMOOTH",
"60 600 OFFCURVE",
"147 758 OFFCURVE",
"362 758 CURVE"
);
}
);
width = 722;
}
);
unicode = 004F;
},
{
glyphname = P;
lastChange = "2017-01-29 15:05:04 +0000";
layers = (
{
guideLines = (
{
angle = 90;
position = "{333, 580}";
},
{
position = "{358, 302}";
}
);
layerId = "4FDEB90F-2C0C-4ACB-ACF7-DAF8C24482EF";
paths = (
{
closed = 1;
nodes = (
"333 301 LINE SMOOTH",
"448 302 OFFCURVE",
"548 364 OFFCURVE",
"548 526 CURVE SMOOTH",
"548 686 OFFCURVE",
"448 750 OFFCURVE",
"333 750 CURVE",
"134 750 LINE",
"133 300 LINE"
);
},
{
closed = 1;
nodes = (
"170 0 LINE",
"170 750 LINE",
"98 750 LINE",
"98 0 LINE"
);
},
{
closed = 1;
nodes = (
"160 678 LINE",
"328 678 LINE",
"418 678 OFFCURVE",
"473 636 OFFCURVE",
"473 526 CURVE SMOOTH",
"473 413 OFFCURVE",
"415 372 OFFCURVE",
"328 371 CURVE SMOOTH",
"159 370 LINE"
);
}
);
width = 600;
},
{
associatedMasterId = "4FDEB90F-2C0C-4ACB-ACF7-DAF8C24482EF";
guideLines = (
{
angle = 90;
position = "{333, 750}";
}
);
layerId = "DB09C4A3-0881-4BE5-AC4B-0FF6B0CE6DD6";
name = "Jan 20 17, 12:14";
paths = (
{
closed = 1;
nodes = (
"307 0 LINE SMOOTH",
"473 0 OFFCURVE",
"610 101 OFFCURVE",
"610 379 CURVE SMOOTH",
"610 657 OFFCURVE",
"491 750 OFFCURVE",
"333 750 CURVE",
"117 750 LINE",
"120 0 LINE"
);
},
{
closed = 1;
nodes = (
"171 0 LINE",
"171 750 LINE",
"99 750 LINE",
"99 0 LINE"
);
},
{
closed = 1;
nodes = (
"154 680 LINE",
"329 680 LINE",
"439 680 OFFCURVE",
"541 612 OFFCURVE",
"541 378 CURVE SMOOTH",
"541 145 OFFCURVE",
"434 70 OFFCURVE",
"303 70 CURVE SMOOTH",
"156 70 LINE"
);
}
);
width = 600;
}
);
unicode = 0050;
},
{
glyphname = Q;
lastChange = "2017-02-02 21:22:05 +0000";
layers = (
{
layerId = "4FDEB90F-2C0C-4ACB-ACF7-DAF8C24482EF";
paths = (
{
closed = 1;
nodes = (
"199 686 OFFCURVE",
"132 536 OFFCURVE",
"132 382 CURVE SMOOTH",
"132 235 OFFCURVE",
"200 64 OFFCURVE",
"364 64 CURVE SMOOTH",
"527 64 OFFCURVE",
"590 235 OFFCURVE",
"590 382 CURVE SMOOTH",
"590 536 OFFCURVE",
"526 686 OFFCURVE",
"362 686 CURVE"
);
},
{
closed = 1;
nodes = (
"577 758 OFFCURVE",
"662 600 OFFCURVE",
"662 382 CURVE SMOOTH",
"662 171 OFFCURVE",
"591 -8 OFFCURVE",
"364 -8 CURVE SMOOTH",
"162 -8 OFFCURVE",
"60 171 OFFCURVE",
"60 382 CURVE SMOOTH",
"60 600 OFFCURVE",
"147 758 OFFCURVE",
"362 758 CURVE"
);
},
{
closed = 1;
nodes = (
"292 76 LINE",
"609 -58 LINE",
"619 -130 LINE",
"248 15 LINE"
);
}
);
width = 722;
}
);
unicode = 0051;
},
{
glyphname = R;
lastChange = "2017-01-29 15:05:28 +0000";
layers = (
{
layerId = "4FDEB90F-2C0C-4ACB-ACF7-DAF8C24482EF";
paths = (
{
closed = 1;
nodes = (
"501 0 LINE",
"583 0 LINE",
"409 330 LINE",
"332 332 LINE"
);
},
{
closed = 1;
nodes = (
"333 315 LINE SMOOTH",
"448 316 OFFCURVE",
"548 371 OFFCURVE",
"548 533 CURVE SMOOTH",
"548 693 OFFCURVE",
"448 750 OFFCURVE",
"333 750 CURVE",
"134 750 LINE",
"133 314 LINE"
);
},
{
closed = 1;
nodes = (
"170 0 LINE",
"170 750 LINE",
"98 750 LINE",
"98 0 LINE"
);
},
{
closed = 1;
nodes = (
"160 678 LINE",
"328 678 LINE",
"418 678 OFFCURVE",
"473 643 OFFCURVE",
"473 533 CURVE SMOOTH",
"473 420 OFFCURVE",
"415 386 OFFCURVE",
"328 385 CURVE SMOOTH",
"159 384 LINE"
);
}
);
width = 600;
}
);
unicode = 0052;
},
{
glyphname = S;
lastChange = "2017-01-28 17:03:28 +0000";
layers = (
{
layerId = "4FDEB90F-2C0C-4ACB-ACF7-DAF8C24482EF";
paths = (
{
closed = 1;
nodes = (
"442 743 OFFCURVE",
"395 764 OFFCURVE",
"291 764 CURVE SMOOTH",
"172 764 OFFCURVE",
"65 709 OFFCURVE",
"65 561 CURVE SMOOTH",
"65 309 OFFCURVE",
"446 413 OFFCURVE",
"446 201 CURVE SMOOTH",
"446 98 OFFCURVE",
"374 61 OFFCURVE",
"277 61 CURVE SMOOTH",
"182 61 OFFCURVE",
"105 100 OFFCURVE",
"66 124 CURVE",
"56 53 LINE",
"90 31 OFFCURVE",
"158 -11 OFFCURVE",
"278 -11 CURVE SMOOTH",
"435 -11 OFFCURVE",
"520 72 OFFCURVE",
"520 208 CURVE SMOOTH",
"520 476 OFFCURVE",
"138 374 OFFCURVE",
"138 566 CURVE SMOOTH",
"138 660 OFFCURVE",
"211 693 OFFCURVE",
"299 693 CURVE SMOOTH",
"377 693 OFFCURVE",
"438 675 OFFCURVE",
"473 655 CURVE",
"491 719 LINE"
);
}
);
width = 566;
}
);
unicode = 0053;
},
{
glyphname = T;
lastChange = "2017-01-14 13:31:11 +0000";
layers = (
{
layerId = "4FDEB90F-2C0C-4ACB-ACF7-DAF8C24482EF";
paths = (
{
closed = 1;
nodes = (
"213 752 LINE",
"213 0 LINE",
"285 0 LINE",
"285 750 LINE",
"213 750 LINE"
);
},
{
closed = 1;
nodes = (
"12 753 LINE",
"12 683 LINE",
"492 683 LINE",
"492 750 LINE",
"12 750 LINE"
);
}
);
width = 504;
}
);
unicode = 0054;
},
{
glyphname = U;
lastChange = "2017-01-20 09:51:46 +0000";
layers = (
{
guideLines = (
{
position = "{80, 706}";
}
);
layerId = "4FDEB90F-2C0C-4ACB-ACF7-DAF8C24482EF";
paths = (
{
closed = 1;
nodes = (
"157 749 LINE",
"85 749 LINE",
"85 256 LINE",
"85 120 OFFCURVE",
"137 0 OFFCURVE",
"333 0 CURVE SMOOTH",
"529 0 OFFCURVE",
"581 120 OFFCURVE",
"581 256 CURVE SMOOTH",
"581 750 LINE",
"510 750 LINE",
"510 584 OFFCURVE",
"510 373 OFFCURVE",
"510 258 CURVE SMOOTH",
"510 172 OFFCURVE",
"490 70 OFFCURVE",
"334 70 CURVE SMOOTH",
"178 70 OFFCURVE",
"153 172 OFFCURVE",
"153 258 CURVE SMOOTH",
"153 749 LINE"
);
}
);
width = 666;
}
);
unicode = 0055;
},
{
glyphname = V;
lastChange = "2017-01-29 14:52:20 +0000";
layers = (
{
layerId = "4FDEB90F-2C0C-4ACB-ACF7-DAF8C24482EF";
paths = (
{
closed = 1;
nodes = (
"105 750 LINE",
"331 83 LINE",
"552 750 LINE",
"627 750 LINE",
"371 0 LINE",
"291 0 LINE",
"28 750 LINE"
);
}
);
width = 655;
}
);
unicode = 0056;
},
{
glyphname = W;
lastChange = "2017-01-29 12:27:56 +0000";
layers = (
{
layerId = "4FDEB90F-2C0C-4ACB-ACF7-DAF8C24482EF";
paths = (
{
closed = 1;
nodes = (
"134 750 LINE",
"262 88 LINE",
"448 746 LINE",
"519 746 LINE",
"304 0 LINE",
"215 0 LINE",
"58 750 LINE"
);
},
{
closed = 1;
nodes = (
"738 0 LINE",
"649 0 LINE",
"448 746 LINE",
"519 746 LINE",
"693 88 LINE",
"820 750 LINE",
"893 750 LINE"
);
}
);
width = 951;
}
);
unicode = 0057;
},
{
glyphname = X;
lastChange = "2017-01-29 14:52:35 +0000";
layers = (
{
layerId = "4FDEB90F-2C0C-4ACB-ACF7-DAF8C24482EF";
paths = (
{
closed = 1;
nodes = (
"531 0 LINE",
"58 750 LINE",
"141 750 LINE",
"614 0 LINE"
);
},
{
closed = 1;
nodes = (
"514 750 LINE",
"597 750 LINE",
"367 361 LINE",
"313 410 LINE"
);
},
{
closed = 1;
nodes = (
"295 405 LINE",
"349 356 LINE",
"121 0 LINE",
"38 0 LINE"
);
}
);
width = 652;
}
);
unicode = 0058;
},
{
glyphname = Y;
lastChange = "2017-02-02 20:38:59 +0000";
layers = (
{
layerId = "4FDEB90F-2C0C-4ACB-ACF7-DAF8C24482EF";
paths = (
{
closed = 1;
nodes = (
"354 263 LINE",
"609 750 LINE",
"534 751 LINE",
"320 344 LINE",
"104 750 LINE",
"24 750 LINE",
"282 263 LINE"
);
},
{
closed = 1;
nodes = (
"354 0 LINE",
"354 278 LINE",
"282 278 LINE",
"282 0 LINE",
"278 0 LINE"
);
}
);
width = 633;
}
);
unicode = 0059;
},
{
glyphname = Z;
lastChange = "2017-01-15 15:55:17 +0000";
layers = (
{
guideLines = (
{
angle = 90;
position = "{479, 68}";
},
{
angle = 90;
position = "{79, 0}";
}
);
layerId = "4FDEB90F-2C0C-4ACB-ACF7-DAF8C24482EF";
paths = (
{
closed = 1;
nodes = (
"59 68 LINE",
"133 68 LINE",
"499 682 LINE",
"425 682 LINE"
);
},
{
closed = 1;
nodes = (
"59 0 LINE",
"503 0 LINE",
"503 68 LINE",
"59 68 LINE"
);
},
{
closed = 1;
nodes = (
"79 682 LINE",
"499 682 LINE",
"499 750 LINE",
"79 750 LINE"
);
}
);
width = 564;
}
);
unicode = 005A;
},
{
glyphname = a;
lastChange = "2017-01-13 17:59:40 +0000";
layers = (
{
layerId = "4FDEB90F-2C0C-4ACB-ACF7-DAF8C24482EF";
paths = (
{
closed = 1;
nodes = (
"72 510 LINE",
"135 531 OFFCURVE",
"195 585 OFFCURVE",
"282 585 CURVE SMOOTH",
"456 585 OFFCURVE",
"511 479 OFFCURVE",
"511 337 CURVE",
"512 224 OFFCURVE",
"506 22 OFFCURVE",
"513 -1 CURVE",
"454 -1 LINE",
"444 20 OFFCURVE",
"444 40 OFFCURVE",
"444 61 CURVE",
"411 27 OFFCURVE",
"325 -11 OFFCURVE",
"263 -11 CURVE SMOOTH",
"142 -11 OFFCURVE",
"64 53 OFFCURVE",
"64 152 CURVE SMOOTH",
"64 232 OFFCURVE",
"123 350 OFFCURVE",
"308 350 CURVE",
"350 350 OFFCURVE",
"401 340 OFFCURVE",
"443 320 CURVE",
"442 444 OFFCURVE",
"413 517 OFFCURVE",
"282 517 CURVE",
"223 517 OFFCURVE",
"164 473 OFFCURVE",
"105 454 CURVE"
);
},
{
closed = 1;
nodes = (
"392 300 OFFCURVE",
"314 292 OFFCURVE",
"293 292 CURVE",
"202 292 OFFCURVE",
"132 235 OFFCURVE",
"132 165 CURVE",
"132 90 OFFCURVE",
"190 50 OFFCURVE",
"278 50 CURVE SMOOTH",
"359 50 OFFCURVE",
"470 118 OFFCURVE",
"433 250 CURVE"
);
}
);
width = 597;
}
);
unicode = 0061;
},
{
glyphname = b;
lastChange = "2017-01-13 18:00:17 +0000";
layers = (
{
layerId = "4FDEB90F-2C0C-4ACB-ACF7-DAF8C24482EF";
paths = (
{
closed = 1;
nodes = (
"87 322 LINE",
"87 301 OFFCURVE",
"90 31 OFFCURVE",
"80 0 CURVE",
"149 0 LINE",
"155 31 OFFCURVE",
"152 42 OFFCURVE",
"152 63 CURVE",
"155 62 LINE",
"174 43 OFFCURVE",
"231 -11 OFFCURVE",
"321 -11 CURVE SMOOTH",
"472 -11 OFFCURVE",
"550 65 OFFCURVE",
"550 294 CURVE SMOOTH",
"550 494 OFFCURVE",
"476 588 OFFCURVE",
"319 588 CURVE SMOOTH",
"249 588 OFFCURVE",
"184 550 OFFCURVE",
"159 512 CURVE",
"159 534 OFFCURVE",
"158 786 OFFCURVE",
"158 809 CURVE",
"87 809 LINE"
);
},
{
closed = 1;
nodes = (
"157 414 LINE",
"165 444 OFFCURVE",
"221 521 OFFCURVE",
"327 521 CURVE SMOOTH",
"435 521 OFFCURVE",
"481 447 OFFCURVE",
"481 297 CURVE SMOOTH",
"481 124 OFFCURVE",
"435 52 OFFCURVE",
"331 52 CURVE SMOOTH",
"242 52 OFFCURVE",
"157 110 OFFCURVE",
"157 177 CURVE"
);
}
);
width = 614;
}
);
unicode = 0062;
},
{
glyphname = c;
lastChange = "2017-01-13 18:00:25 +0000";
layers = (
{
layerId = "4FDEB90F-2C0C-4ACB-ACF7-DAF8C24482EF";
paths = (
{
closed = 1;
nodes = (
"434 549 OFFCURVE",
"398 588 OFFCURVE",
"308 588 CURVE SMOOTH",
"198 588 OFFCURVE",
"60 535 OFFCURVE",
"60 290 CURVE SMOOTH",
"60 45 OFFCURVE",
"209 -11 OFFCURVE",
"312 -11 CURVE SMOOTH",
"425 -11 OFFCURVE",
"464 46 OFFCURVE",
"495 51 CURVE",
"484 111 LINE",
"426 100 OFFCURVE",
"410 51 OFFCURVE",
"311 51 CURVE SMOOTH",
"200 51 OFFCURVE",
"130 138 OFFCURVE",
"130 295 CURVE SMOOTH",
"130 452 OFFCURVE",
"202 524 OFFCURVE",
"305 524 CURVE SMOOTH",
"388 524 OFFCURVE",
"408 485 OFFCURVE",
"467 477 CURVE",
"497 533 LINE"
);
}
);
width = 549;
}
);
unicode = 0063;
},
{
glyphname = d;
lastChange = "2017-01-10 19:46:32 +0000";
layers = (
{
layerId = "4FDEB90F-2C0C-4ACB-ACF7-DAF8C24482EF";
paths = (
{
closed = 1;
nodes = (
"462 809 LINE",
"462 786 OFFCURVE",
"461 544 OFFCURVE",
"461 522 CURVE",
"436 560 OFFCURVE",
"371 588 OFFCURVE",
"301 588 CURVE SMOOTH",
"144 588 OFFCURVE",
"70 494 OFFCURVE",
"70 294 CURVE SMOOTH",
"70 65 OFFCURVE",
"148 -11 OFFCURVE",
"299 -11 CURVE SMOOTH",
"389 -11 OFFCURVE",
"446 43 OFFCURVE",
"465 62 CURVE",
"468 63 LINE",
"468 42 OFFCURVE",
"465 31 OFFCURVE",
"471 0 CURVE",
"541 0 LINE",
"531 31 OFFCURVE",
"534 301 OFFCURVE",
"534 322 CURVE",
"534 809 LINE"
);
},
{
closed = 1;
nodes = (
"463 110 OFFCURVE",
"378 52 OFFCURVE",
"289 52 CURVE SMOOTH",
"185 52 OFFCURVE",
"139 124 OFFCURVE",
"139 297 CURVE SMOOTH",
"139 447 OFFCURVE",
"184 521 OFFCURVE",
"293 521 CURVE SMOOTH",
"399 521 OFFCURVE",
"455 454 OFFCURVE",
"463 424 CURVE",
"463 177 LINE"
);
}
);
width = 612;
}
);
unicode = 0064;
},
{
glyphname = e;
lastChange = "2017-01-13 18:00:54 +0000";
layers = (
{
layerId = "4FDEB90F-2C0C-4ACB-ACF7-DAF8C24482EF";
paths = (
{
closed = 1;
nodes = (
"59 443 OFFCURVE",
"112 592 OFFCURVE",
"300 592 CURVE SMOOTH",
"460 592 OFFCURVE",
"537 509 OFFCURVE",
"517 283 CURVE",
"136 274 LINE",
"136 217 OFFCURVE",
"144 54 OFFCURVE",
"299 54 CURVE",
"424 54 OFFCURVE",
"440 99 OFFCURVE",
"503 127 CURVE",
"520 62 LINE",
"474 42 OFFCURVE",
"441 -12 OFFCURVE",
"299 -12 CURVE SMOOTH",
"167 -12 OFFCURVE",
"59 63 OFFCURVE",
"59 287 CURVE"
);
},
{
closed = 1;
nodes = (
"164 532 OFFCURVE",
"139 395 OFFCURVE",
"139 337 CURVE",
"455 344 LINE",
"464 436 OFFCURVE",
"424 532 OFFCURVE",
"300 532 CURVE"
);
}
);
width = 584;
}
);
unicode = 0065;
},
{
glyphname = f;
lastChange = "2017-01-13 18:01:12 +0000";
layers = (
{
layerId = "4FDEB90F-2C0C-4ACB-ACF7-DAF8C24482EF";
paths = (
{
closed = 1;
nodes = (
"161 796 OFFCURVE",
"107 742 OFFCURVE",
"107 638 CURVE",
"107 0 LINE",
"177 0 LINE",
"177 638 LINE",
"177 698 OFFCURVE",
"198 724 OFFCURVE",
"246 724 CURVE",
"295 720 OFFCURVE",
"305 712 OFFCURVE",
"324 713 CURVE",
"331 781 LINE",
"298 784 OFFCURVE",
"291 796 OFFCURVE",
"233 796 CURVE"
);
},
{
closed = 1;
nodes = (
"133 523 OFFCURVE",
"256 506 OFFCURVE",
"309 520 CURVE",
"319 583 LINE",
"266 570 OFFCURVE",
"133 587 OFFCURVE",
"40 587 CURVE",
"40 522 LINE"
);
}
);
width = 363;
}
);
unicode = 0066;
},
{
glyphname = g;
lastChange = "2017-01-13 18:01:25 +0000";
layers = (
{
layerId = "4FDEB90F-2C0C-4ACB-ACF7-DAF8C24482EF";
paths = (
{
closed = 1;
nodes = (
"538 258 LINE SMOOTH",
"538 266 OFFCURVE",
"538 309 OFFCURVE",
"538 361 CURVE SMOOTH",
"538 448 OFFCURVE",
"539 561 OFFCURVE",
"545 580 CURVE",
"475 580 LINE",
"472 565 OFFCURVE",
"471 554 OFFCURVE",
"471 545 CURVE SMOOTH",
"471 536 OFFCURVE",
"472 528 OFFCURVE",
"472 517 CURVE",
"469 518 LINE",
"450 537 OFFCURVE",
"393 591 OFFCURVE",
"303 591 CURVE SMOOTH",
"152 591 OFFCURVE",
"74 515 OFFCURVE",
"74 286 CURVE SMOOTH",
"74 86 OFFCURVE",
"148 -8 OFFCURVE",
"305 -8 CURVE SMOOTH",
"375 -8 OFFCURVE",
"440 20 OFFCURVE",
"465 58 CURVE",
"465 36 OFFCURVE",
"466 23 OFFCURVE",
"466 0 CURVE",
"538 0 LINE"
);
},
{
closed = 1;
nodes = (
"467 156 LINE",
"459 126 OFFCURVE",
"403 59 OFFCURVE",
"297 59 CURVE SMOOTH",
"188 59 OFFCURVE",
"143 133 OFFCURVE",
"143 283 CURVE SMOOTH",
"143 456 OFFCURVE",
"189 528 OFFCURVE",
"293 528 CURVE SMOOTH",
"382 528 OFFCURVE",
"467 470 OFFCURVE",
"467 403 CURVE SMOOTH"
);
},
{
closed = 1;
nodes = (
"464 -104 OFFCURVE",
"449 -156 OFFCURVE",
"331 -156 CURVE SMOOTH",
"253 -156 OFFCURVE",
"200 -115 OFFCURVE",
"128 -110 CURVE",
"126 -180 LINE",
"205 -182 OFFCURVE",
"233 -222 OFFCURVE",
"332 -222 CURVE SMOOTH",
"461 -222 OFFCURVE",
"538 -163 OFFCURVE",
"538 0 CURVE",
"466 0 LINE"
);
}
);
width = 625;
}
);
unicode = 0067;
},
{
glyphname = h;
lastChange = "2017-01-13 18:01:41 +0000";
layers = (
{
layerId = "4FDEB90F-2C0C-4ACB-ACF7-DAF8C24482EF";
paths = (
{
closed = 1;
nodes = (
"162 0 LINE",
"162 809 LINE",
"93 809 LINE",
"93 0 LINE"
);
},
{
closed = 1;
nodes = (
"537 0 LINE",
"517 31 OFFCURVE",
"527 321 OFFCURVE",
"527 352 CURVE",
"526 379 LINE SMOOTH",
"521 513 OFFCURVE",
"463 587 OFFCURVE",
"334 587 CURVE SMOOTH",
"265 587 OFFCURVE",
"194 571 OFFCURVE",
"151 494 CURVE",
"149 386 LINE",
"172 451 OFFCURVE",
"227 520 OFFCURVE",
"327 520 CURVE SMOOTH",
"417 520 OFFCURVE",
"458 456 OFFCURVE",
"457 369 CURVE SMOOTH",
"455 172 LINE",
"455 141 OFFCURVE",
"458 31 OFFCURVE",
"468 0 CURVE"
);
}
);
width = 616;
}
);
unicode = 0068;
},
{
glyphname = i;
lastChange = "2017-01-07 11:00:07 +0000";
layers = (
{
layerId = "4FDEB90F-2C0C-4ACB-ACF7-DAF8C24482EF";
paths = (
{
closed = 1;
nodes = (
"159 0 LINE",
"159 580 LINE",
"90 580 LINE",
"90 0 LINE"
);
},
{
closed = 1;
nodes = (
"160 694 OFFCURVE",
"176 717 OFFCURVE",
"162 760 CURVE",
"88 770 LINE",
"101 727 OFFCURVE",
"84 694 OFFCURVE",
"84 661 CURVE",
"160 661 LINE"
);
}
);
width = 252;
}
);
unicode = 0069;
},
{
glyphname = j;
lastChange = "2017-01-07 11:02:48 +0000";
layers = (
{
layerId = "4FDEB90F-2C0C-4ACB-ACF7-DAF8C24482EF";
paths = (
{
closed = 1;
nodes = (
"196 -222 OFFCURVE",
"230 -168 OFFCURVE",
"230 -84 CURVE",
"230 580 LINE",
"160 580 LINE",
"160 -84 LINE",
"160 -124 OFFCURVE",
"139 -150 OFFCURVE",
"91 -150 CURVE",
"42 -146 OFFCURVE",
"22 -138 OFFCURVE",
"3 -139 CURVE",
"-4 -207 LINE",
"29 -210 OFFCURVE",
"46 -222 OFFCURVE",
"104 -222 CURVE"
);
},
{
closed = 1;
nodes = (
"234 694 OFFCURVE",
"250 717 OFFCURVE",
"236 760 CURVE",
"162 770 LINE",
"175 727 OFFCURVE",
"158 694 OFFCURVE",
"158 661 CURVE",
"234 661 LINE"
);
}
);
width = 326;
}
);
unicode = 006A;
},
{
glyphname = k;
lastChange = "2017-01-13 18:02:17 +0000";
layers = (
{
layerId = "4FDEB90F-2C0C-4ACB-ACF7-DAF8C24482EF";
paths = (
{
closed = 1;
nodes = (
"91 2 LINE",
"163 2 LINE",
"163 256 LINE",
"173 256 LINE",
"268 171 OFFCURVE",
"402 18 OFFCURVE",
"457 -5 CURVE",
"510 42 LINE",
"449 71 OFFCURVE",
"327 215 OFFCURVE",
"236 298 CURVE",
"312 374 OFFCURVE",
"445 486 OFFCURVE",
"459 520 CURVE",
"402 560 LINE",
"383 515 OFFCURVE",
"260 413 OFFCURVE",
"171 327 CURVE",
"150 327 LINE",
"154 800 LINE",
"84 800 LINE"
);
}
);
width = 540;
}
);
unicode = 006B;
},
{
glyphname = l;
lastChange = "2017-01-04 19:52:57 +0000";
layers = (
{
layerId = "4FDEB90F-2C0C-4ACB-ACF7-DAF8C24482EF";
paths = (
{
closed = 1;
nodes = (
"169 0 LINE",
"169 750 LINE",
"100 750 LINE",
"100 0 LINE"
);
}
);
width = 269;
}
);
unicode = 006C;
},
{
glyphname = m;
lastChange = "2017-01-08 09:57:17 +0000";
layers = (
{
layerId = "4FDEB90F-2C0C-4ACB-ACF7-DAF8C24482EF";
paths = (
{
closed = 1;
nodes = (
"548 0 LINE",
"528 31 OFFCURVE",
"537 321 OFFCURVE",
"537 352 CURVE",
"537 379 LINE SMOOTH",
"537 513 OFFCURVE",
"474 587 OFFCURVE",
"345 587 CURVE SMOOTH",
"276 587 OFFCURVE",
"205 571 OFFCURVE",
"162 494 CURVE",
"160 386 LINE",
"183 451 OFFCURVE",
"238 520 OFFCURVE",
"338 520 CURVE SMOOTH",
"428 520 OFFCURVE",
"469 456 OFFCURVE",
"468 369 CURVE SMOOTH",
"466 172 LINE",
"466 141 OFFCURVE",
"469 31 OFFCURVE",
"479 0 CURVE"
);
},
{
closed = 1;
nodes = (
"173 0 LINE",
"173 471 LINE",
"170 494 OFFCURVE",
"176 547 OFFCURVE",
"163 580 CURVE",
"94 580 LINE",
"107 547 OFFCURVE",
"104 394 OFFCURVE",
"104 371 CURVE",
"104 0 LINE"
);
},
{
closed = 1;
nodes = (
"889 0 LINE",
"869 31 OFFCURVE",
"878 321 OFFCURVE",
"878 352 CURVE",
"878 379 LINE SMOOTH",
"878 513 OFFCURVE",
"815 587 OFFCURVE",
"686 587 CURVE SMOOTH",
"617 587 OFFCURVE",
"546 571 OFFCURVE",
"503 494 CURVE",
"501 386 LINE",
"524 451 OFFCURVE",
"579 520 OFFCURVE",
"679 520 CURVE SMOOTH",
"769 520 OFFCURVE",
"810 456 OFFCURVE",
"809 369 CURVE SMOOTH",
"807 172 LINE",
"807 141 OFFCURVE",
"810 31 OFFCURVE",
"820 0 CURVE"
);
}
);
width = 967;
}
);
unicode = 006D;
},
{
glyphname = n;
lastChange = "2017-01-07 10:40:26 +0000";
layers = (
{
layerId = "4FDEB90F-2C0C-4ACB-ACF7-DAF8C24482EF";
paths = (
{
closed = 1;
nodes = (
"547 0 LINE",
"527 31 OFFCURVE",
"536 321 OFFCURVE",
"536 352 CURVE",
"536 379 LINE SMOOTH",
"536 513 OFFCURVE",
"473 587 OFFCURVE",
"344 587 CURVE SMOOTH",
"275 587 OFFCURVE",
"204 571 OFFCURVE",
"161 494 CURVE",
"159 386 LINE",
"182 451 OFFCURVE",
"237 520 OFFCURVE",
"337 520 CURVE SMOOTH",
"427 520 OFFCURVE",
"468 456 OFFCURVE",
"467 369 CURVE SMOOTH",
"465 172 LINE",
"465 141 OFFCURVE",
"468 31 OFFCURVE",
"478 0 CURVE"
);
},
{
closed = 1;
nodes = (
"172 0 LINE",
"172 471 LINE",
"169 494 OFFCURVE",
"175 547 OFFCURVE",
"162 580 CURVE",
"93 580 LINE",
"106 547 OFFCURVE",
"103 394 OFFCURVE",
"103 371 CURVE",
"103 0 LINE"
);
}
);
width = 626;
}
);
unicode = 006E;
},
{
glyphname = o;
lastChange = "2017-01-13 18:02:37 +0000";
layers = (
{
guideLines = (
{
locked = 1;
position = "{542, 294}";
},
{
angle = 270;
locked = 1;
position = "{296, 600}";
}
);
layerId = "4FDEB90F-2C0C-4ACB-ACF7-DAF8C24482EF";
paths = (
{
closed = 1;
nodes = (
"160 526 OFFCURVE",
"122 415 OFFCURVE",
"122 295 CURVE SMOOTH",
"122 174 OFFCURVE",
"161 54 OFFCURVE",
"296 54 CURVE SMOOTH",
"431 54 OFFCURVE",
"466 173 OFFCURVE",
"466 295 CURVE SMOOTH",
"466 415 OFFCURVE",
"430 526 OFFCURVE",
"295 526 CURVE"
);
},
{
closed = 1;
nodes = (
"470 588 OFFCURVE",
"536 465 OFFCURVE",
"536 295 CURVE SMOOTH",
"536 123 OFFCURVE",
"481 -8 OFFCURVE",
"296 -8 CURVE SMOOTH",
"131 -8 OFFCURVE",
"52 124 OFFCURVE",
"52 295 CURVE SMOOTH",
"52 465 OFFCURVE",
"120 588 OFFCURVE",
"295 588 CURVE"
);
}
);
width = 588;
}
);
unicode = 006F;
},
{
glyphname = p;
lastChange = "2017-01-29 10:28:56 +0000";
layers = (
{
layerId = "4FDEB90F-2C0C-4ACB-ACF7-DAF8C24482EF";
paths = (
{
closed = 1;
nodes = (
"194 33 OFFCURVE",
"266 -5 OFFCURVE",
"336 -5 CURVE SMOOTH",
"493 -5 OFFCURVE",
"567 89 OFFCURVE",
"567 289 CURVE SMOOTH",
"567 518 OFFCURVE",
"489 588 OFFCURVE",
"338 588 CURVE SMOOTH",
"238 588 OFFCURVE",
"188 543 OFFCURVE",
"169 524 CURVE",
"169 71 LINE"
);
},
{
closed = 1;
nodes = (
"174 476 OFFCURVE",
"249 525 OFFCURVE",
"348 525 CURVE SMOOTH",
"456 525 OFFCURVE",
"498 459 OFFCURVE",
"498 286 CURVE SMOOTH",
"498 136 OFFCURVE",
"452 58 OFFCURVE",
"344 58 CURVE SMOOTH",
"238 58 OFFCURVE",
"182 139 OFFCURVE",
"174 169 CURVE",
"174 409 LINE"
);
},
{
closed = 1;
nodes = (
"172 -215 LINE",
"172 471 LINE",
"169 494 OFFCURVE",
"175 547 OFFCURVE",
"162 580 CURVE",
"93 580 LINE",
"106 547 OFFCURVE",
"103 394 OFFCURVE",
"103 371 CURVE",
"103 -215 LINE"
);
}
);
width = 625;
}
);
unicode = 0070;
},
{
glyphname = q;
lastChange = "2017-01-08 10:09:46 +0000";
layers = (
{
layerId = "4FDEB90F-2C0C-4ACB-ACF7-DAF8C24482EF";
paths = (
{
closed = 1;
nodes = (
"456 524 LINE",
"437 543 OFFCURVE",
"387 588 OFFCURVE",
"287 588 CURVE SMOOTH",
"136 588 OFFCURVE",
"58 518 OFFCURVE",
"58 289 CURVE SMOOTH",
"58 89 OFFCURVE",
"132 -5 OFFCURVE",
"289 -5 CURVE SMOOTH",
"359 -5 OFFCURVE",
"431 33 OFFCURVE",
"456 71 CURVE"
);
},
{
closed = 1;
nodes = (
"451 169 LINE",
"443 139 OFFCURVE",
"387 62 OFFCURVE",
"281 62 CURVE SMOOTH",
"173 62 OFFCURVE",
"127 136 OFFCURVE",
"127 286 CURVE SMOOTH",
"127 459 OFFCURVE",
"169 525 OFFCURVE",
"277 525 CURVE SMOOTH",
"376 525 OFFCURVE",
"451 476 OFFCURVE",
"451 409 CURVE"
);
},
{
closed = 1;
nodes = (
"522 371 LINE",
"522 394 OFFCURVE",
"519 547 OFFCURVE",
"532 580 CURVE",
"463 580 LINE",
"450 547 OFFCURVE",
"456 494 OFFCURVE",
"453 471 CURVE",
"453 -215 LINE",
"522 -215 LINE"
);
}
);
width = 625;
}
);
unicode = 0071;
},
{
glyphname = r;
lastChange = "2017-01-13 18:02:57 +0000";
layers = (
{
layerId = "4FDEB90F-2C0C-4ACB-ACF7-DAF8C24482EF";
paths = (
{
closed = 1;
nodes = (
"158 322 LINE",
"159 397 OFFCURVE",
"249 510 OFFCURVE",
"353 514 CURVE",
"376 579 LINE",
"237 584 OFFCURVE",
"184 492 OFFCURVE",
"95 396 CURVE",
"95 347 LINE"
);
},
{
closed = 1;
nodes = (
"159 0 LINE",
"157 471 LINE",
"154 494 OFFCURVE",
"162 547 OFFCURVE",
"149 580 CURVE",
"80 580 LINE",
"93 547 OFFCURVE",
"90 394 OFFCURVE",
"90 371 CURVE",
"90 0 LINE"
);
}
);
width = 410;
}
);
unicode = 0072;
},
{
glyphname = s;
lastChange = "2017-01-14 10:32:38 +0000";
layers = (
{
layerId = "4FDEB90F-2C0C-4ACB-ACF7-DAF8C24482EF";
paths = (
{
closed = 1;
nodes = (
"379 477 OFFCURVE",
"341 524 OFFCURVE",
"241 524 CURVE SMOOTH",
"178 524 OFFCURVE",
"127 505 OFFCURVE",
"127 424 CURVE SMOOTH",
"127 282 OFFCURVE",
"468 389 OFFCURVE",
"468 158 CURVE SMOOTH",
"468 68 OFFCURVE",
"421 -7 OFFCURVE",
"273 -7 CURVE",
"183 -7 OFFCURVE",
"123 34 OFFCURVE",
"77 38 CURVE",
"86 103 LINE",
"121 105 OFFCURVE",
"165 61 OFFCURVE",
"281 61 CURVE SMOOTH",
"370 61 OFFCURVE",
"402 100 OFFCURVE",
"402 167 CURVE SMOOTH",
"402 318 OFFCURVE",
"60 205 OFFCURVE",
"60 424 CURVE SMOOTH",
"60 508 OFFCURVE",
"90 588 OFFCURVE",
"243 588 CURVE SMOOTH",
"311 588 OFFCURVE",
"384 551 OFFCURVE",
"440 540 CURVE",
"422 482 LINE"
);
}
);
width = 528;
}
);
unicode = 0073;
},
{
glyphname = t;
lastChange = "2017-01-13 18:03:25 +0000";
layers = (
{
layerId = "4FDEB90F-2C0C-4ACB-ACF7-DAF8C24482EF";
paths = (
{
closed = 1;
nodes = (
"287 -8 OFFCURVE",
"304 4 OFFCURVE",
"337 7 CURVE",
"330 75 LINE",
"311 76 OFFCURVE",
"291 68 OFFCURVE",
"242 64 CURVE",
"194 64 OFFCURVE",
"173 90 OFFCURVE",
"173 130 CURVE",
"173 756 LINE",
"103 756 LINE",
"103 130 LINE",
"103 46 OFFCURVE",
"137 -8 OFFCURVE",
"229 -8 CURVE"
);
},
{
closed = 1;
nodes = (
"129 520 OFFCURVE",
"272 503 OFFCURVE",
"325 517 CURVE",
"335 580 LINE",
"282 567 OFFCURVE",
"129 584 OFFCURVE",
"36 584 CURVE",
"36 519 LINE"
);
}
);
width = 387;
}
);
unicode = 0074;
},
{
glyphname = u;
lastChange = "2017-01-20 09:18:05 +0000";
layers = (
{
layerId = "4FDEB90F-2C0C-4ACB-ACF7-DAF8C24482EF";
paths = (
{
closed = 1;
nodes = (
"90 580 LINE",
"90 549 OFFCURVE",
"89 259 OFFCURVE",
"89 228 CURVE",
"90 201 LINE SMOOTH",
"95 67 OFFCURVE",
"153 -7 OFFCURVE",
"284 -7 CURVE SMOOTH",
"345 -7 OFFCURVE",
"416 9 OFFCURVE",
"459 86 CURVE",
"461 194 LINE",
"438 129 OFFCURVE",
"383 60 OFFCURVE",
"291 60 CURVE SMOOTH",
"199 60 OFFCURVE",
"159 124 OFFCURVE",
"159 211 CURVE SMOOTH",
"159 428 LINE",
"159 459 OFFCURVE",
"159 549 OFFCURVE",
"159 580 CURVE"
);
},
{
closed = 1;
nodes = (
"448 580 LINE",
"449 465 OFFCURVE",
"448 0 OFFCURVE",
"448 0 CURVE",
"515 0 LINE",
"515 30 OFFCURVE",
"515 189 OFFCURVE",
"515 580 CURVE"
);
}
);
width = 620;
}
);
unicode = 0075;
},
{
glyphname = v;
lastChange = "2017-01-13 18:03:36 +0000";
layers = (
{
layerId = "4FDEB90F-2C0C-4ACB-ACF7-DAF8C24482EF";
paths = (
{
closed = 1;
nodes = (
"265 0 LINE",
"337 0 LINE",
"391 151 LINE",
"465 367 OFFCURVE",
"522 549 OFFCURVE",
"553 580 CURVE",
"482 580 LINE",
"453 551 OFFCURVE",
"312 101 OFFCURVE",
"304 75 CURVE",
"119 580 LINE",
"50 580 LINE"
);
}
);
width = 600;
}
);
unicode = 0076;
},
{
glyphname = w;
lastChange = "2017-01-08 10:30:07 +0000";
layers = (
{
layerId = "4FDEB90F-2C0C-4ACB-ACF7-DAF8C24482EF";
paths = (
{
closed = 1;
nodes = (
"673 0 LINE",
"744 0 LINE",
"798 151 LINE",
"872 367 OFFCURVE",
"929 549 OFFCURVE",
"960 580 CURVE",
"889 580 LINE",
"860 551 OFFCURVE",
"714 101 OFFCURVE",
"706 75 CURVE",
"532 580 LINE",
"469 580 LINE"
);
},
{
closed = 1;
nodes = (
"244 0 LINE",
"316 0 LINE",
"370 151 LINE",
"444 367 OFFCURVE",
"501 549 OFFCURVE",
"532 580 CURVE",
"464 580 LINE",
"435 551 OFFCURVE",
"291 101 OFFCURVE",
"283 75 CURVE",
"98 580 LINE",
"29 580 LINE"
);
}
);
width = 1000;
}
);
unicode = 0077;
},
{
glyphname = x;
lastChange = "2017-01-13 18:51:39 +0000";
layers = (
{
layerId = "4FDEB90F-2C0C-4ACB-ACF7-DAF8C24482EF";
paths = (
{
closed = 1;
nodes = (
"562 0 LINE",
"525 29 OFFCURVE",
"170 551 OFFCURVE",
"137 584 CURVE",
"54 582 LINE",
"104 542 OFFCURVE",
"234 343 OFFCURVE",
"479 0 CURVE"
);
},
{
closed = 1;
nodes = (
"385 343 OFFCURVE",
"515 542 OFFCURVE",
"565 582 CURVE",
"482 584 LINE",
"449 551 OFFCURVE",
"94 29 OFFCURVE",
"57 0 CURVE",
"140 0 LINE"
);
}
);
width = 609;
}
);
unicode = 0078;
},
{
glyphname = y;
lastChange = "2017-01-13 18:03:53 +0000";
layers = (
{
layerId = "4FDEB90F-2C0C-4ACB-ACF7-DAF8C24482EF";
paths = (
{
closed = 1;
nodes = (
"447 362 OFFCURVE",
"513 560 OFFCURVE",
"533 580 CURVE",
"463 580 LINE",
"434 551 OFFCURVE",
"285 81 OFFCURVE",
"277 55 CURVE",
"89 580 LINE",
"20 580 LINE",
"232 -10 LINE",
"309 -30 LINE"
);
},
{
closed = 1;
nodes = (
"105 -196 OFFCURVE",
"224 -281 OFFCURVE",
"279 -114 CURVE",
"309 -30 LINE",
"232 -10 LINE",
"235 -38 OFFCURVE",
"226 -76 OFFCURVE",
"212 -104 CURVE SMOOTH",
"171 -186 OFFCURVE",
"135 -145 OFFCURVE",
"86 -139 CURVE",
"59 -205 LINE"
);
}
);
width = 600;
}
);
unicode = 0079;
},
{
glyphname = z;
lastChange = "2017-01-13 18:04:01 +0000";
layers = (
{
layerId = "4FDEB90F-2C0C-4ACB-ACF7-DAF8C24482EF";
paths = (
{
closed = 1;
nodes = (
"433 581 LINE",
"433 512 LINE",
"134 69 LINE",
"167 69 LINE",
"167 0 LINE",
"55 0 LINE",
"55 67 LINE",
"353 514 LINE",
"327 524 LINE",
"327 581 LINE"
);
},
{
closed = 1;
nodes = (
"96 45 LINE",
"123 69 LINE",
"154 69 OFFCURVE",
"404 60 OFFCURVE",
"435 80 CURVE",
"435 11 LINE",
"404 1 OFFCURVE",
"294 -2 OFFCURVE",
"263 -2 CURVE",
"106 0 LINE"
);
},
{
closed = 1;
nodes = (
"401 535 LINE",
"374 514 LINE",
"343 514 OFFCURVE",
"93 520 OFFCURVE",
"62 500 CURVE",
"62 569 LINE",
"93 579 OFFCURVE",
"203 582 OFFCURVE",
"239 582 CURVE",
"391 580 LINE"
);
}
);
width = 490;
}
);
unicode = 007A;
},
